<svg viewBox="0 0 64 64" xmlns="http://www.w3.org/2000/svg">
  <!-- Dark Urge icon - represents the Bhaalspawn origin -->
  <ellipse cx="32" cy="30" rx="18" ry="22" fill="#450a0a" />
  <ellipse cx="32" cy="28" rx="14" ry="18" fill="#7f1d1d" />
  <circle cx="26" cy="26" r="4" fill="#dc2626" />
  <circle cx="38" cy="26" r="4" fill="#dc2626" />
  <circle cx="26" cy="26" r="2" fill="#000" />
  <circle cx="38" cy="26" r="2" fill="#000" />
  <path
    d="M26 36c2 3 4 4 6 4s4-1 6-4"
    stroke="#450a0a"
    stroke-width="2"
    fill="none"
  />
  <path
    d="M20 20c-2-4-4-6-6-6M44 20c2-4 4-6 6-6M32 10c0-4 0-6 0-8"
    stroke="#7f1d1d"
    stroke-width="3"
    stroke-linecap="round"
  />
  <path
    d="M28 44l-4 8M36 44l4 8"
    stroke="#450a0a"
    stroke-width="2"
    fill="none"
  />
</svg>
