<svg xmlns="http://www.w3.org/2000/svg" version="1.1" xmlns:xlink="http://www.w3.org/1999/xlink" width="1000" height="1000"><metadata><rdf:RDF xmlns:rdf="http://www.w3.org/1999/02/22-rdf-syntax-ns#" xmlns:dc="http://purl.org/dc/elements/1.1/"><rdf:Description><dc:creator>RealFaviconGenerator</dc:creator><dc:source>https://realfavicongenerator.net</dc:source></rdf:Description></rdf:RDF></metadata><style>
    #light-icon {
      display: inline;
    }
    #dark-icon {
      display: none;
    }

    @media (prefers-color-scheme: dark) {
      #light-icon {
        display: none;
      }
      #dark-icon {
        display: inline;
      }
    }
  </style><g id="light-icon"><svg xmlns="http://www.w3.org/2000/svg" version="1.1" xmlns:xlink="http://www.w3.org/1999/xlink" width="1000" height="1000"><g clip-path="url(#SvgjsClipPath1278)"><rect width="1000" height="1000" fill="#252525"></rect><g transform="matrix(15.625,0,0,15.625,0,0)"><svg xmlns="http://www.w3.org/2000/svg" viewBox="0 0 64 64" fill="none" width="64" height="64"><defs>
    <linearGradient id="nnrCoinGlow" x1="0" y1="0" x2="1" y2="1">
      <stop offset="0" stop-color="#63D792"></stop>
      <stop offset="1" stop-color="#00AAFF"></stop>
    </linearGradient>
  <clipPath id="SvgjsClipPath1278"><rect width="1000" height="1000" x="0" y="0" rx="500" ry="500"></rect></clipPath></defs><circle cx="32" cy="32" r="26" fill="url(#nnrCoinGlow)" opacity="0.35"></circle><circle cx="32" cy="32" r="20" stroke="#63D792" stroke-width="3"></circle><circle cx="32" cy="32" r="12" stroke="#00AAFF" stroke-width="2"></circle><circle cx="32" cy="32" r="3" fill="#99f6e4"></circle><path d="M32 32L50 24" stroke="#99f6e4" stroke-width="2" stroke-linecap="round"></path></svg></g></g></svg></g><g id="dark-icon"><svg xmlns="http://www.w3.org/2000/svg" version="1.1" xmlns:xlink="http://www.w3.org/1999/xlink" width="1000" height="1000"><g><g transform="matrix(15.625,0,0,15.625,0,0)"><svg xmlns="http://www.w3.org/2000/svg" viewBox="0 0 64 64" fill="none" width="64" height="64"><defs>
    <linearGradient id="nnrCoinGlow" x1="0" y1="0" x2="1" y2="1">
      <stop offset="0" stop-color="#63D792"></stop>
      <stop offset="1" stop-color="#00AAFF"></stop>
    </linearGradient>
  </defs><circle cx="32" cy="32" r="26" fill="url(#nnrCoinGlow)" opacity="0.35"></circle><circle cx="32" cy="32" r="20" stroke="#63D792" stroke-width="3"></circle><circle cx="32" cy="32" r="12" stroke="#00AAFF" stroke-width="2"></circle><circle cx="32" cy="32" r="3" fill="#99f6e4"></circle><path d="M32 32L50 24" stroke="#99f6e4" stroke-width="2" stroke-linecap="round"></path></svg></g></g></svg></g></svg>